<svg xmlns="http://www.w3.org/2000/svg" viewBox="0 0 711.73 163.91"><defs><style>.cls-1{fill:#70ad47;}</style></defs><g id="Layer_2" data-name="Layer 2"><g id="Layer_1-2" data-name="Layer 1"><path class="cls-1" d="M284.43,78.49a28.66,28.66,0,0,0-1.66,2.8A35.83,35.83,0,0,0,278.94,98a24.12,24.12,0,0,0-3-12.52,18.22,18.22,0,0,0-7.53-7.23A21.3,21.3,0,0,0,258.88,76q-.67,0-1.35,0V65.94c.45,0,.9,0,1.35,0a32.3,32.3,0,0,1,16.29,4A27.32,27.32,0,0,1,284.43,78.49Z"/><path class="cls-1" d="M341.15,98.12A35.47,35.47,0,0,1,337.26,115a27.59,27.59,0,0,1-10.93,11.36,31.9,31.9,0,0,1-15.46,4v-10.1a20.74,20.74,0,0,0,8.71-2.28,18.6,18.6,0,0,0,7.54-7.29q3-5,3-12.64a24.12,24.12,0,0,0-3-12.52,18.19,18.19,0,0,0-7.54-7.23A21.24,21.24,0,0,0,310.05,76a21.48,21.48,0,0,0-9.66,2.24,17.83,17.83,0,0,0-7.48,7.23Q290,90.46,290,98v.12A35.47,35.47,0,0,1,286.11,115a29.63,29.63,0,0,1-1.68,2.8,27.32,27.32,0,0,1-9.26,8.56,35.32,35.32,0,0,1-32.69,0A27.29,27.29,0,0,1,231.6,115a35.93,35.93,0,0,1-3.82-16.83,35.93,35.93,0,0,1,3.82-16.83,27.29,27.29,0,0,1,10.88-11.36,32,32,0,0,1,15-4V76a21.84,21.84,0,0,0-8.31,2.21,17.86,17.86,0,0,0-7.47,7.23A24.52,24.52,0,0,0,238.83,98q0,7.65,2.92,12.64a18.27,18.27,0,0,0,7.47,7.29,21.12,21.12,0,0,0,9.66,2.31,20.85,20.85,0,0,0,9.55-2.31,18.64,18.64,0,0,0,7.53-7.29c2-3.3,3-7.46,3-12.52V98a35.83,35.83,0,0,1,3.83-16.71,28.66,28.66,0,0,1,1.66-2.8,26.9,26.9,0,0,1,9.21-8.56,35.32,35.32,0,0,1,32.69,0,27.59,27.59,0,0,1,10.93,11.36A35.47,35.47,0,0,1,341.15,98.12Z"/><path class="cls-1" d="M310.87,120.21v10.1h-.82a32.55,32.55,0,0,1-16.41-4,26.9,26.9,0,0,1-9.21-8.56,29.63,29.63,0,0,0,1.68-2.8A35.47,35.47,0,0,0,290,98.12c0,5.06,1,9.22,2.91,12.52a18.23,18.23,0,0,0,7.48,7.29,21,21,0,0,0,9.66,2.31C310.32,120.24,310.6,120.23,310.87,120.21Z"/><path class="cls-1" d="M365.58,128.44a7.58,7.58,0,0,1-2.68-3.22L341.76,74.67a6.69,6.69,0,0,1-.61-2.55,5.5,5.5,0,0,1,1.58-4,5.16,5.16,0,0,1,3.89-1.64,5.35,5.35,0,0,1,3,.91,5.29,5.29,0,0,1,2,2.25l18.59,47.14,18.6-47.14a5.29,5.29,0,0,1,2-2.25,5.35,5.35,0,0,1,3-.91,5.18,5.18,0,0,1,3.89,1.64,5.5,5.5,0,0,1,1.58,4,6.88,6.88,0,0,1-.61,2.55l-21.14,50.55a7.58,7.58,0,0,1-2.68,3.22,6.83,6.83,0,0,1-4,1.28h-1.21A6.83,6.83,0,0,1,365.58,128.44Z"/><path class="cls-1" d="M413.94,126.31A27.2,27.2,0,0,1,403.07,115a35.81,35.81,0,0,1-3.83-16.83,35.81,35.81,0,0,1,3.83-16.83,27.2,27.2,0,0,1,10.87-11.36,35.32,35.32,0,0,1,32.69,0,27.67,27.67,0,0,1,10.94,11.36,35.47,35.47,0,0,1,3.88,16.83A35.47,35.47,0,0,1,457.57,115a27.67,27.67,0,0,1-10.94,11.36,35.32,35.32,0,0,1-32.69,0Zm25.95-8.38a18.64,18.64,0,0,0,7.53-7.29q3-5,3-12.64a24.15,24.15,0,0,0-3-12.52,18.22,18.22,0,0,0-7.53-7.23A21.3,21.3,0,0,0,430.35,76a21.56,21.56,0,0,0-9.67,2.25,17.86,17.86,0,0,0-7.47,7.23A24.55,24.55,0,0,0,410.3,98q0,7.65,2.91,12.64a18.27,18.27,0,0,0,7.47,7.29,21.1,21.1,0,0,0,9.67,2.31A20.84,20.84,0,0,0,439.89,117.93Z"/><path class="cls-1" d="M471,128.14a5.27,5.27,0,0,1-1.58-3.89V45.38a5.47,5.47,0,0,1,1.58-4,5.2,5.2,0,0,1,3.89-1.64,5.41,5.41,0,0,1,5.59,5.59v78.87a5.21,5.21,0,0,1-1.64,3.89,5.53,5.53,0,0,1-3.95,1.58A5.29,5.29,0,0,1,471,128.14Z"/><path class="cls-1" d="M496.45,121.88q-8.32-8.44-8.32-23.76a39.55,39.55,0,0,1,3.16-15.92A27,27,0,0,1,501,70.41q6.56-4.48,16.16-4.49a28.33,28.33,0,0,1,15.56,4.19,27.17,27.17,0,0,1,10,11.18,34.34,34.34,0,0,1,3.4,15.25A5.31,5.31,0,0,1,540.5,102H499.31q1,8.51,6.32,13.24T520.57,120a36.52,36.52,0,0,0,8.94-1,37.51,37.51,0,0,0,7.47-2.79,4.74,4.74,0,0,1,2.19-.49,4.89,4.89,0,0,1,3.4,1.34,4.41,4.41,0,0,1,1.46,3.4c0,1.78-1.06,3.28-3.16,4.5a37.89,37.89,0,0,1-21.27,5.34Q504.78,130.32,496.45,121.88ZM535.16,93a19.6,19.6,0,0,0-3.1-10,16.8,16.8,0,0,0-6.75-5.89,18.56,18.56,0,0,0-16.28,0,16.36,16.36,0,0,0-6.68,5.89,19.77,19.77,0,0,0-3,10Z"/><path class="cls-1" d="M564.66,127.16a20.52,20.52,0,0,1-7.54-8.62,27.59,27.59,0,0,1-2.61-12V72a5.19,5.19,0,0,1,1.64-3.88,5.46,5.46,0,0,1,4-1.58A5.4,5.4,0,0,1,565.57,72v33.3q0,14.83,13.36,14.83A19.4,19.4,0,0,0,589.81,117a39.23,39.23,0,0,0,9.05-8.51V72a5.19,5.19,0,0,1,1.64-3.88,5.47,5.47,0,0,1,4-1.58A5.4,5.4,0,0,1,609.92,72v52.14a5.47,5.47,0,0,1-1.58,3.94,5.17,5.17,0,0,1-3.89,1.65,5.62,5.62,0,0,1-5.59-5.59v-5a40.46,40.46,0,0,1-10,8.15,25.24,25.24,0,0,1-12.64,3A21,21,0,0,1,564.66,127.16Z"/><path class="cls-1" d="M620.35,128.14a5.27,5.27,0,0,1-1.58-3.89V72.12a5.46,5.46,0,0,1,1.58-4,5.14,5.14,0,0,1,3.88-1.64,5.6,5.6,0,0,1,5.59,5.59v5a30.24,30.24,0,0,1,8.21-8q4.8-3.17,12.45-3.16a18.89,18.89,0,0,1,11.67,3.64,20.26,20.26,0,0,1,6.92,8.88q7.54-12.52,22.36-12.52a18.42,18.42,0,0,1,11.36,3.4,20.35,20.35,0,0,1,6.75,8.75,29.23,29.23,0,0,1,2.19,11.18v35a5.21,5.21,0,0,1-1.64,3.89,5.53,5.53,0,0,1-4,1.58,5.4,5.4,0,0,1-5.47-5.47V91.44q0-7.91-2.8-11.61t-9.6-3.7A16,16,0,0,0,678,79.35a31.06,31.06,0,0,0-7.24,8.44v36.46a5.18,5.18,0,0,1-1.64,3.89,5.49,5.49,0,0,1-3.94,1.58,5.4,5.4,0,0,1-5.47-5.47V91.44q0-7.91-2.8-11.61t-9.6-3.7a16,16,0,0,0-10.27,3.22,31.21,31.21,0,0,0-7.23,8.44v36.46a5.18,5.18,0,0,1-1.64,3.89,5.5,5.5,0,0,1-3.95,1.58A5.27,5.27,0,0,1,620.35,128.14Z"/><path class="cls-1" d="M166.21,128.73a5.33,5.33,0,0,1-1.6-3.94V72a5.55,5.55,0,0,1,1.6-4,5.23,5.23,0,0,1,3.94-1.66A5.67,5.67,0,0,1,175.81,72v5a40.85,40.85,0,0,1,10.09-8.25,25.54,25.54,0,0,1,12.81-3.08,21.29,21.29,0,0,1,11.75,3.2,20.88,20.88,0,0,1,7.64,8.74,28,28,0,0,1,2.64,12.19v35a5.23,5.23,0,0,1-1.66,3.94,5.55,5.55,0,0,1-4,1.6,5.46,5.46,0,0,1-5.54-5.54V91.06q0-15-13.54-15a19.61,19.61,0,0,0-11,3.2,40,40,0,0,0-9.17,8.62v36.93a5.23,5.23,0,0,1-1.66,3.94,5.55,5.55,0,0,1-4,1.6A5.33,5.33,0,0,1,166.21,128.73Z"/><path class="cls-1" d="M113.22,58.71,64.08,0,14.94,58.71a64.08,64.08,0,1,0,98.28,0Zm-10,39.39a7,7,0,0,1-8.49,6.79l-1.94-.41A7.43,7.43,0,0,1,87,97.3v-.21a22.89,22.89,0,1,0-22.88,23.54v-7.32A5.38,5.38,0,0,1,72.63,109l7.29,5.3,1.18.85,10.11,7.34a5.38,5.38,0,0,1,1.63,1.91,5.5,5.5,0,0,1,.5,1.48,5.35,5.35,0,0,1-2.13,5.32l-.94.68L72.63,144.66a5.39,5.39,0,0,1-8.55-4.37v-3.37H64a39.19,39.19,0,1,1,39.26-39.18Z"/></g></g></svg>